<mxfile host="app.diagrams.net" modified="2021-03-10T10:58:46.668Z" agent="5.0 (Macintosh)" etag="T4DBwe5SMKfI3yI6mAQY" version="14.4.6" type="github">
  <diagram id="BAbo_2kxki6wbcmEBhtL" name="Page-1">
    <mxGraphModel dx="946" dy="626" grid="1" gridSize="10" guides="1" tooltips="1" connect="1" arrows="1" fold="1" page="1" pageScale="1" pageWidth="850" pageHeight="1100" math="0" shadow="0">
      <root>
        <mxCell id="0" />
        <mxCell id="1" parent="0" />
        <mxCell id="BHyEHo-JyhSXneRQvZ70-1" value="" style="shape=image;html=1;verticalLabelPosition=bottom;verticalAlign=top;imageAspect=1;aspect=fixed;image=img/clipart/Gear_128x128.png" vertex="1" parent="1">
          <mxGeometry x="400" y="290" width="52" height="61" as="geometry" />
        </mxCell>
      </root>
    </mxGraphModel>
  </diagram>
</mxfile>
